<?xml version="1.0" encoding="UTF-8"?>
<!DOCTYPE svg PUBLIC "-//W3C//DTD SVG 1.1//EN" "http://www.w3.org/Graphics/SVG/1.1/DTD/svg11.dtd">
<svg xmlns="http://www.w3.org/2000/svg" version="1.1" viewBox="0 0 77 77" stroke="none">
	<rect width="100%" height="100%" fill="#ffffff"/>
	<path d="M20,20h7v1h-7z M28,20h2v1h-2z M35,20h1v4h-1z M37,20h1v1h-1z M39,20h2v1h-2z M47,20h2v1h-2z M50,20h7v1h-7z M20,21h1v6h-1z M26,21h1v6h-1z M30,21h1v3h-1z M32,21h3v1h-3z M39,21h1v1h-1z M41,21h1v2h-1z M43,21h2v1h-2z M48,21h1v1h-1z M50,21h1v6h-1z M56,21h1v6h-1z M22,22h3v3h-3z M34,22h1v5h-1z M37,22h2v1h-2z M42,22h1v1h-1z M44,22h1v2h-1z M52,22h3v3h-3z M28,23h1v8h-1z M31,23h3v1h-3z M36,23h1v1h-1z M38,23h1v2h-1z M45,23h1v2h-1z M48,23h1v1h-1z M37,24h1v2h-1z M42,24h2v1h-2z M47,24h1v1h-1z M29,25h1v1h-1z M32,25h1v3h-1z M36,25h1v4h-1z M39,25h2v1h-2z M46,25h1v2h-1z M21,26h5v1h-5z M30,26h1v1h-1z M38,26h1v1h-1z M40,26h1v3h-1z M42,26h1v1h-1z M44,26h1v2h-1z M48,26h1v2h-1z M51,26h5v1h-5z M29,27h1v3h-1z M33,27h1v1h-1z M35,27h1v2h-1z M41,27h1v1h-1z M47,27h1v1h-1z M20,28h1v1h-1z M24,28h1v1h-1z M26,28h2v1h-2z M31,28h1v1h-1z M39,28h1v4h-1z M43,28h1v1h-1z M49,28h5v1h-5z M56,28h1v1h-1z M22,29h1v2h-1z M27,29h1v2h-1z M32,29h3v1h-3z M37,29h2v2h-2z M42,29h1v1h-1z M44,29h2v2h-2z M47,29h2v2h-2z M52,29h1v2h-1z M55,29h1v1h-1z M23,30h1v2h-1z M25,30h2v1h-2z M30,30h1v1h-1z M32,30h1v1h-1z M34,30h2v1h-2z M41,30h1v4h-1z M43,30h1v2h-1z M53,30h1v1h-1z M20,31h2v1h-2z M29,31h1v1h-1z M31,31h1v1h-1z M35,31h3v1h-3z M40,31h1v1h-1z M47,31h1v1h-1z M50,31h1v2h-1z M54,31h2v2h-2z M21,32h2v1h-2z M25,32h1v4h-1z M26,32h1v1h-1z M28,32h1v1h-1z M33,32h2v2h-2z M37,32h2v1h-2z M42,32h1v1h-1z M44,32h1v2h-1z M46,32h1v1h-1z M48,32h1v1h-1z M53,32h1v3h-1z M56,32h1v1h-1z M23,33h1v2h-1z M30,33h2v1h-2z M36,33h1v1h-1z M43,33h1v3h-1z M47,33h1v2h-1z M49,33h1v1h-1z M51,33h2v1h-2z M26,34h4v1h-4z M31,34h1v2h-1z M34,34h2v3h-2z M37,34h1v2h-1z M48,34h1v1h-1z M51,34h1v1h-1z M54,34h1v7h-1z M20,35h1v1h-1z M22,35h1v1h-1z M24,35h1v3h-1z M27,35h3v1h-3z M32,35h2v1h-2z M38,35h1v2h-1z M42,35h1v2h-1z M44,35h1v2h-1z M46,35h1v1h-1z M55,35h2v1h-2z M21,36h1v2h-1z M26,36h1v1h-1z M28,36h3v1h-3z M33,36h1v1h-1z M45,36h1v1h-1z M47,36h3v2h-3z M50,36h2v1h-2z M53,36h1v1h-1z M56,36h1v1h-1z M22,37h2v1h-2z M28,37h1v1h-1z M32,37h1v2h-1z M34,37h1v1h-1z M36,37h2v1h-2z M39,37h3v1h-3z M46,37h1v1h-1z M52,37h1v1h-1z M55,37h1v1h-1z M25,38h3v1h-3z M33,38h1v1h-1z M36,38h1v1h-1z M38,38h1v2h-1z M40,38h1v1h-1z M45,38h1v1h-1z M47,38h1v1h-1z M49,38h1v2h-1z M51,38h1v2h-1z M23,39h1v3h-1z M27,39h4v1h-4z M37,39h1v3h-1z M41,39h2v2h-2z M44,39h1v1h-1z M48,39h1v1h-1z M50,39h1v2h-1z M52,39h1v1h-1z M55,39h1v1h-1z M20,40h1v1h-1z M24,40h3v1h-3z M31,40h3v1h-3z M35,40h1v4h-1z M36,40h1v1h-1z M39,40h2v1h-2z M43,40h1v3h-1z M46,40h1v1h-1z M53,40h1v1h-1z M22,41h1v5h-1z M25,41h1v1h-1z M27,41h1v1h-1z M30,41h1v3h-1z M32,41h1v2h-1z M38,41h1v2h-1z M44,41h2v1h-2z M47,41h1v2h-1z M51,41h2v3h-2z M21,42h1v1h-1z M24,42h1v2h-1z M26,42h1v1h-1z M28,42h1v3h-1z M33,42h1v2h-1z M41,42h2v1h-2z M46,42h1v1h-1z M48,42h2v1h-2z M53,42h2v3h-2z M20,43h1v3h-1z M23,43h1v1h-1z M25,43h1v2h-1z M27,43h1v2h-1z M34,43h1v1h-1z M39,43h3v1h-3z M44,43h1v5h-1z M49,43h2v2h-2z M26,44h1v1h-1z M29,44h1v2h-1z M31,44h1v1h-1z M36,44h1v1h-1z M40,44h1v1h-1z M45,44h1v2h-1z M51,44h1v1h-1z M55,44h2v1h-2z M32,45h1v10h-1z M34,45h1v1h-1z M38,45h2v3h-2z M41,45h2v1h-2z M46,45h2v3h-2z M48,45h1v1h-1z M50,45h1v4h-1z M52,45h1v1h-1z M23,46h4v1h-4z M28,46h1v2h-1z M30,46h1v2h-1z M33,46h1v2h-1z M35,46h1v2h-1z M43,46h1v1h-1z M51,46h1v3h-1z M22,47h2v2h-2z M25,47h1v1h-1z M29,47h1v2h-1z M31,47h1v2h-1z M34,47h1v1h-1z M36,47h2v1h-2z M40,47h3v2h-3z M48,47h1v6h-1z M49,47h1v2h-1z M54,47h2v1h-2z M20,48h2v1h-2z M26,48h1v1h-1z M37,48h1v1h-1z M43,48h1v3h-1z M46,48h1v1h-1z M52,48h1v5h-1z M56,48h1v1h-1z M28,49h1v2h-1z M30,49h1v1h-1z M33,49h1v1h-1z M35,49h1v4h-1z M36,49h1v1h-1z M38,49h1v1h-1z M40,49h2v1h-2z M44,49h2v1h-2z M47,49h1v1h-1z M54,49h2v1h-2z M20,50h7v1h-7z M29,50h1v3h-1z M31,50h1v1h-1z M37,50h1v2h-1z M46,50h1v2h-1z M50,50h1v1h-1z M53,50h1v2h-1z M20,51h1v6h-1z M26,51h1v6h-1z M33,51h2v2h-2z M38,51h2v2h-2z M42,51h1v2h-1z M47,51h1v1h-1z M54,51h2v2h-2z M56,51h1v1h-1z M22,52h3v3h-3z M28,52h1v1h-1z M31,52h1v3h-1z M44,52h2v1h-2z M49,52h3v1h-3z M34,53h1v3h-1z M36,53h1v2h-1z M39,53h2v1h-2z M45,53h3v1h-3z M50,53h2v1h-2z M53,53h2v1h-2z M56,53h1v1h-1z M29,54h1v3h-1z M33,54h1v2h-1z M37,54h1v3h-1z M40,54h2v1h-2z M43,54h2v2h-2z M47,54h1v3h-1z M48,54h1v1h-1z M50,54h1v1h-1z M53,54h1v1h-1z M30,55h1v2h-1z M38,55h1v1h-1z M41,55h1v2h-1z M46,55h1v2h-1z M51,55h2v1h-2z M54,55h2v2h-2z M21,56h5v1h-5z M28,56h1v1h-1z M32,56h1v1h-1z M35,56h1v1h-1z M39,56h1v1h-1z M42,56h2v1h-2z M53,56h1v1h-1z M56,56h1v1h-1z" fill="#000000"/>
</svg>
