<?xml version="1.0" encoding="UTF-8"?>
<!DOCTYPE svg PUBLIC "-//W3C//DTD SVG 1.1//EN" "http://www.w3.org/Graphics/SVG/1.1/DTD/svg11.dtd">
<svg xmlns="http://www.w3.org/2000/svg" version="1.1" viewBox="0 0 81 81" stroke="none">
	<rect width="100%" height="100%" fill="#ffffff"/>
	<path d="M20,20h7v1h-7z M30,20h2v2h-2z M37,20h4v1h-4z M43,20h2v1h-2z M49,20h1v2h-1z M51,20h2v1h-2z M54,20h7v1h-7z M20,21h1v6h-1z M26,21h1v6h-1z M34,21h1v1h-1z M36,21h1v1h-1z M40,21h1v1h-1z M42,21h1v4h-1z M44,21h2v1h-2z M47,21h1v1h-1z M54,21h1v6h-1z M60,21h1v6h-1z M22,22h3v3h-3z M28,22h1v6h-1z M29,22h1v1h-1z M31,22h3v1h-3z M35,22h1v1h-1z M41,22h1v1h-1z M50,22h2v1h-2z M56,22h3v3h-3z M33,23h1v2h-1z M36,23h1v2h-1z M43,23h1v2h-1z M46,23h4v1h-4z M52,23h1v1h-1z M29,24h1v1h-1z M35,24h1v1h-1z M38,24h2v1h-2z M41,24h1v2h-1z M44,24h2v1h-2z M49,24h1v1h-1z M51,24h1v1h-1z M45,25h3v1h-3z M52,25h1v3h-1z M21,26h5v1h-5z M30,26h1v3h-1z M32,26h1v1h-1z M34,26h1v1h-1z M36,26h1v1h-1z M38,26h1v1h-1z M40,26h1v1h-1z M42,26h1v3h-1z M44,26h1v3h-1z M46,26h1v1h-1z M48,26h1v2h-1z M50,26h1v2h-1z M55,26h5v1h-5z M33,27h1v1h-1z M39,27h1v1h-1z M41,27h1v1h-1z M20,28h1v4h-1z M22,28h5v1h-5z M29,28h1v1h-1z M31,28h2v1h-2z M34,28h1v1h-1z M37,28h1v1h-1z M40,28h1v4h-1z M45,28h3v1h-3z M49,28h1v1h-1z M54,28h5v1h-5z M21,29h2v1h-2z M27,29h2v2h-2z M33,29h1v1h-1z M39,29h1v1h-1z M41,29h1v1h-1z M43,29h1v1h-1z M50,29h5v1h-5z M56,29h1v3h-1z M58,29h3v1h-3z M21,30h1v1h-1z M23,30h1v1h-1z M25,30h2v1h-2z M30,30h1v1h-1z M34,30h1v1h-1z M42,30h1v1h-1z M47,30h1v2h-1z M49,30h2v1h-2z M52,30h2v2h-2z M24,31h1v1h-1z M28,31h2v1h-2z M31,31h1v3h-1z M33,31h1v1h-1z M35,31h1v3h-1z M36,31h1v1h-1z M39,31h1v2h-1z M41,31h1v1h-1z M43,31h1v1h-1z M46,31h1v1h-1z M48,31h1v9h-1z M50,31h2v1h-2z M54,31h2v1h-2z M57,31h1v2h-1z M60,31h1v1h-1z M21,32h2v1h-2z M25,32h2v1h-2z M28,32h1v1h-1z M30,32h1v2h-1z M32,32h1v4h-1z M34,32h1v1h-1z M37,32h2v1h-2z M44,32h2v1h-2z M49,32h1v1h-1z M51,32h1v1h-1z M58,32h2v1h-2z M20,33h1v3h-1z M22,33h2v1h-2z M27,33h1v2h-1z M29,33h1v3h-1z M33,33h1v5h-1z M36,33h2v1h-2z M40,33h2v3h-2z M43,33h1v1h-1z M45,33h2v2h-2z M50,33h1v1h-1z M52,33h2v2h-2z M54,33h1v1h-1z M56,33h1v3h-1z M58,33h1v1h-1z M60,33h1v1h-1z M25,34h2v1h-2z M42,34h1v2h-1z M44,34h1v1h-1z M47,34h1v3h-1z M59,34h1v1h-1z M23,35h3v1h-3z M31,35h1v1h-1z M51,35h1v1h-1z M54,35h1v1h-1z M57,35h1v2h-1z M21,36h1v5h-1z M26,36h2v1h-2z M35,36h3v2h-3z M44,36h3v1h-3z M49,36h1v1h-1z M52,36h2v1h-2z M55,36h1v2h-1z M58,36h1v1h-1z M20,37h1v1h-1z M25,37h1v4h-1z M28,37h1v7h-1z M30,37h3v1h-3z M38,37h6v1h-6z M50,37h3v1h-3z M54,37h1v1h-1z M56,37h1v3h-1z M59,37h2v1h-2z M24,38h1v2h-1z M26,38h1v1h-1z M29,38h2v1h-2z M34,38h2v1h-2z M37,38h1v1h-1z M40,38h1v3h-1z M45,38h3v1h-3z M57,38h1v1h-1z M32,39h2v5h-2z M35,39h2v1h-2z M39,39h1v1h-1z M41,39h1v1h-1z M47,39h1v2h-1z M51,39h2v1h-2z M20,40h1v4h-1z M23,40h1v1h-1z M26,40h2v1h-2z M30,40h1v5h-1z M34,40h2v1h-2z M38,40h1v4h-1z M42,40h1v5h-1z M43,40h1v2h-1z M45,40h2v1h-2z M49,40h1v3h-1z M53,40h1v1h-1z M57,40h2v1h-2z M60,40h1v2h-1z M22,41h1v2h-1z M24,41h1v1h-1z M27,41h1v2h-1z M31,41h1v2h-1z M34,41h1v1h-1z M36,41h1v1h-1z M39,41h1v1h-1z M44,41h1v2h-1z M48,41h1v1h-1z M50,41h2v1h-2z M54,41h4v1h-4z M59,41h1v1h-1z M26,42h1v1h-1z M35,42h1v1h-1z M37,42h1v1h-1z M41,42h1v2h-1z M45,42h3v1h-3z M52,42h1v1h-1z M55,42h2v2h-2z M25,43h1v4h-1z M34,43h1v3h-1z M39,43h2v2h-2z M43,43h1v3h-1z M46,43h1v5h-1z M57,43h1v1h-1z M22,44h3v2h-3z M26,44h1v1h-1z M29,44h1v1h-1z M33,44h1v2h-1z M36,44h2v1h-2z M44,44h2v1h-2z M47,44h1v1h-1z M49,44h1v1h-1z M53,44h1v1h-1z M55,44h1v1h-1z M59,44h2v1h-2z M20,45h2v1h-2z M27,45h1v2h-1z M31,45h1v1h-1z M35,45h1v2h-1z M38,45h2v1h-2z M48,45h1v2h-1z M50,45h2v1h-2z M54,45h1v1h-1z M56,45h2v1h-2z M60,45h1v1h-1z M21,46h2v1h-2z M24,46h1v1h-1z M26,46h1v1h-1z M29,46h2v2h-2z M32,46h1v2h-1z M36,46h1v7h-1z M37,46h2v1h-2z M40,46h1v1h-1z M42,46h1v1h-1z M44,46h2v1h-2z M47,46h1v3h-1z M49,46h1v1h-1z M52,46h1v5h-1z M53,46h1v2h-1z M59,46h1v1h-1z M20,47h1v1h-1z M22,47h2v1h-2z M28,47h1v2h-1z M33,47h1v1h-1z M39,47h1v1h-1z M41,47h1v1h-1z M43,47h1v3h-1z M50,47h2v3h-2z M54,47h4v1h-4z M21,48h1v2h-1z M25,48h3v1h-3z M30,48h1v4h-1z M37,48h1v1h-1z M45,48h1v2h-1z M49,48h1v3h-1z M55,48h1v2h-1z M57,48h2v1h-2z M20,49h1v4h-1z M23,49h1v4h-1z M24,49h2v1h-2z M27,49h1v2h-1z M29,49h1v3h-1z M33,49h1v4h-1z M38,49h1v1h-1z M40,49h3v1h-3z M46,49h1v1h-1z M48,49h1v1h-1z M54,49h1v4h-1z M56,49h1v8h-1z M57,49h1v1h-1z M60,49h1v1h-1z M22,50h1v2h-1z M26,50h1v1h-1z M28,50h1v1h-1z M35,50h1v2h-1z M47,50h1v1h-1z M53,50h1v3h-1z M59,50h1v1h-1z M24,51h1v1h-1z M31,51h1v1h-1z M34,51h1v5h-1z M40,51h5v1h-5z M50,51h1v1h-1z M55,51h1v2h-1z M57,51h1v2h-1z M25,52h3v1h-3z M32,52h1v3h-1z M37,52h2v2h-2z M42,52h1v1h-1z M44,52h4v1h-4z M49,52h1v2h-1z M51,52h2v1h-2z M58,52h2v1h-2z M28,53h1v1h-1z M35,53h1v1h-1z M39,53h2v1h-2z M43,53h1v1h-1z M46,53h1v1h-1z M48,53h1v1h-1z M50,53h1v1h-1z M52,53h1v5h-1z M60,53h1v1h-1z M20,54h7v1h-7z M30,54h1v1h-1z M33,54h1v1h-1z M36,54h2v1h-2z M41,54h1v6h-1z M44,54h1v1h-1z M47,54h1v1h-1z M51,54h1v2h-1z M54,54h1v1h-1z M58,54h2v1h-2z M20,55h1v6h-1z M26,55h1v6h-1z M28,55h1v4h-1z M29,55h1v1h-1z M35,55h1v6h-1z M37,55h4v1h-4z M42,55h1v2h-1z M46,55h1v2h-1z M48,55h1v2h-1z M59,55h1v1h-1z M22,56h3v3h-3z M31,56h3v1h-3z M36,56h1v1h-1z M44,56h1v5h-1z M45,56h1v2h-1z M49,56h1v1h-1z M53,56h1v4h-1z M54,56h2v1h-2z M57,56h2v2h-2z M60,56h1v2h-1z M29,57h2v2h-2z M32,57h1v1h-1z M34,57h1v4h-1z M38,57h2v1h-2z M43,57h1v1h-1z M50,57h1v2h-1z M55,57h1v2h-1z M59,57h1v1h-1z M31,58h1v3h-1z M33,58h1v1h-1z M37,58h1v1h-1z M42,58h1v3h-1z M47,58h2v2h-2z M49,58h1v1h-1z M54,58h1v1h-1z M56,58h1v3h-1z M58,58h1v1h-1z M32,59h1v2h-1z M36,59h1v1h-1z M38,59h1v1h-1z M43,59h1v1h-1z M52,59h1v1h-1z M57,59h1v2h-1z M59,59h1v1h-1z M21,60h5v1h-5z M28,60h1v1h-1z M30,60h1v1h-1z M33,60h1v1h-1z M37,60h1v1h-1z M40,60h1v1h-1z M45,60h1v1h-1z M47,60h1v1h-1z M49,60h1v1h-1z M51,60h1v1h-1z M54,60h2v1h-2z M58,60h1v1h-1z" fill="#000000"/>
</svg>
